<svg xmlns="http://www.w3.org/2000/svg" width="1240" height="1240"><path d="M406.5 39.671c-32.954 1.876-73.201 10.652-105.5 23.004C183.289 107.691 96.753 211.016 73.57 334.229c-5.805 30.854-5.567 18.637-5.569 286.049-.001 266.908-.183 257.374 5.49 288.065 23.645 127.928 115.916 235.033 238.447 276.782 9.559 3.257 9.394 3.221 8.571 1.89-.557-.902 4.084-17.75 20.387-74.015 3.267-11.275 43.521-150.775 89.454-310 45.933-159.225 86.058-298.275 89.168-309 3.109-10.725 8.503-29.4 11.987-41.5 16.392-56.937 21.875-75.889 25.133-86.87 2.006-6.761 3.146-12.246 2.649-12.743-.882-.882-134.024-64.866-135.681-65.204-.492-.101-20.577 68.127-44.634 151.618-24.057 83.49-44.017 152.077-44.355 152.415-.485.485-81.163-22.13-87.761-24.6-1.423-.533 2.842-16.191 31.629-116.116 18.3-63.525 44.858-155.775 59.019-205 14.161-49.225 25.908-89.68 26.105-89.9.459-.513 9 3.458 57.891 26.916 60.279 28.922 152.891 73.274 190 90.991 18.15 8.666 54.825 26.214 81.5 38.996 26.675 12.781 57.725 27.633 69 33.003 11.275 5.37 33.295 15.898 48.934 23.395 15.639 7.497 28.747 13.286 29.131 12.865.383-.421 7.933-25.966 16.777-56.766 8.844-30.8 29.166-101.448 45.161-156.995 15.995-55.547 29.357-102.122 29.693-103.5.337-1.378 1.059-2.797 1.604-3.155 2.319-1.517-33.212-11.67-56.843-16.243-32.153-6.222-21.55-5.965-252.957-6.129-116.05-.082-213.7.005-217 .193M650 76.447c-29.59 6.361-51.926 27.233-60.206 56.262-2.965 10.395-3.136 29.585-.349 39.291 9.326 32.485 33.682 53.641 66.805 58.029 15.64 2.071 33.833-1.794 48.25-10.251 8.997-5.278 22-18.281 27.278-27.278 16.683-28.438 14.023-62.723-6.916-89.148-8.988-11.343-25.155-21.675-40.362-25.795-8.405-2.277-26.379-2.856-34.5-1.11m367.28 30.803c-.845 1.094-31.796 108.092-98.425 340.25-10.576 36.85-19.31 67.127-19.408 67.283-.099.156-32.303-15.083-71.564-33.865-164.209-78.554-182.077-87.055-182.334-86.744-.148.179-8.177 27.776-17.841 61.326-9.664 33.55-34.501 119.652-55.193 191.339-20.693 71.686-37.483 130.756-37.313 131.266.17.51 7.731-2.725 16.803-7.19 9.072-4.465 49.12-23.993 88.995-43.395 39.875-19.402 99.5-48.442 132.5-64.535 86.783-42.319 96.5-46.95 96.5-45.994 0 .725-26.767 93.893-116.647 406.009l-19.435 67.5c-3.799 13.2-7.248 24.737-7.663 25.638-.663 1.438-6.128.088-44.684-11.037-24.161-6.971-44.093-13.167-44.294-13.769-.349-1.048 14.06-51.67 62.999-221.332 12.295-42.625 22.091-77.616 21.767-77.757-.323-.142-43.778 20.814-96.565 46.569-52.788 25.755-102.749 50.086-111.024 54.07l-15.046 7.243-14.168 49.187c-55.067 191.18-72.558 251.331-73.373 252.33-1.812 2.219 31.558 2.525 228.133 2.093 175.194-.386 197.91-.612 209.5-2.087 85.91-10.927 157.548-45.621 217.037-105.111 54.044-54.044 87.59-118.842 101.2-195.479l2.763-15.558v-526l-2.324-14.459c-9.916-61.682-35.805-120.331-74.616-169.041-17.798-22.337-47.092-50.587-67.687-65.274-7.386-5.267-7.252-5.213-8.593-3.476" fill="undefined" fill-rule="evenodd"/></svg>