<svg xmlns="http://www.w3.org/2000/svg" width="1103" height="1162"><path d="M0 581.004v581.004l123.75-.254 123.75-.254 2.342-7c1.288-3.85 2.7-8.35 3.137-10 .437-1.65 4.183-14.7 8.324-29l14.044-48.5c3.583-12.375 43.641-151.2 89.016-308.5 45.376-157.3 85.045-294.775 88.155-305.5 3.109-10.725 8.503-29.4 11.987-41.5 16.392-56.937 21.875-75.889 25.133-86.87 2.006-6.761 3.146-12.246 2.649-12.743-.882-.882-134.024-64.866-135.681-65.204-.492-.101-20.577 68.127-44.634 151.618-24.057 83.49-44.017 152.077-44.355 152.415-.485.485-81.163-22.13-87.761-24.6-1.423-.533 2.842-16.191 31.629-116.116 18.3-63.525 44.858-155.775 59.019-205 14.161-49.225 25.908-89.68 26.105-89.9.459-.513 9 3.458 57.891 26.916 60.279 28.922 152.891 73.274 190 90.991 18.15 8.666 54.825 26.214 81.5 38.996 26.675 12.781 57.725 27.633 69 33.003 11.275 5.37 33.295 15.898 48.934 23.395 15.639 7.497 28.747 13.286 29.131 12.865.69-.758 5.743-18.229 61.399-212.266 15.697-54.725 29.24-101.873 30.096-104.773.975-3.303 1.966-5.02 2.653-4.595.647.4.812.217.402-.446-.382-.617.674-4.998 2.346-9.734C871.632 4.716 873 .651 873 .42 873 .189 676.575 0 436.5 0H0v581.004M961.037 31.75c-5.13 17.462-11.335 37.825-13.791 45.25-3.993 12.075-37.412 127.507-94.814 327.5-10.892 37.95-19.886 69.127-19.985 69.283-.099.156-32.303-15.083-71.564-33.865-164.209-78.554-182.077-87.055-182.334-86.744-.148.179-8.177 27.776-17.841 61.326-9.664 33.55-34.501 119.652-55.193 191.339-20.693 71.686-37.483 130.756-37.313 131.266.17.51 7.731-2.725 16.803-7.19 9.072-4.465 49.12-23.993 88.995-43.395 39.875-19.402 99.5-48.442 132.5-64.535 86.783-42.319 96.5-46.95 96.5-45.994 0 .725-26.767 93.893-116.647 406.009l-19.435 67.5c-3.799 13.2-7.248 24.737-7.663 25.638-.663 1.438-6.128.088-44.684-11.037-24.161-6.971-44.093-13.167-44.294-13.769-.349-1.048 14.06-51.67 62.999-221.332 12.295-42.625 22.091-77.616 21.767-77.757-.323-.142-43.778 20.814-96.565 46.569-52.788 25.755-102.749 50.086-111.024 54.07l-15.046 7.243-14.168 49.187c-55.727 193.473-72.568 251.344-73.463 252.438-.817 1 75.024 1.25 378.601 1.25H1103V0H970.363l-9.326 31.75M583 35.447c-29.59 6.361-51.926 27.233-60.206 56.262-2.965 10.395-3.136 29.585-.349 39.291 9.326 32.485 33.682 53.641 66.805 58.029 15.64 2.071 33.833-1.794 48.25-10.251 8.997-5.278 22-18.281 27.278-27.278 16.683-28.438 14.023-62.723-6.916-89.148-8.988-11.343-25.155-21.675-40.362-25.795-8.405-2.277-26.379-2.856-34.5-1.11" fill="undefined" fill-rule="evenodd"/></svg>