<svg xmlns="http://www.w3.org/2000/svg" width="1200" height="1200"><path d="M0 600.001v600.001l600.25-.251 600.25-.251.251-599.75.251-599.75H0v600.001m.497.499c0 330 .114 465.149.253 300.332s.139-434.817 0-600S.497 270.5.497 600.5M970.843 20.25c-1.988 1.614-7.144 16.453-6.231 17.931.413.668.25.852-.399.451-.687-.425-1.678 1.292-2.653 4.595-.856 2.9-14.399 50.048-30.096 104.773-55.656 194.037-60.709 211.508-61.399 212.266-.384.421-13.492-5.368-29.131-12.865A26649.465 26649.465 0 00792 324.006c-11.275-5.37-42.325-20.222-69-33.003a81085.789 81085.789 0 00-81.5-38.996c-37.109-17.717-129.721-62.069-190-90.991-48.891-23.458-57.432-27.429-57.891-26.916-.197.22-11.944 40.675-26.105 89.9a713455.916 713455.916 0 01-59.019 205c-28.787 99.925-33.052 115.583-31.629 116.116 6.598 2.47 87.276 25.085 87.761 24.6.338-.338 20.298-68.925 44.355-152.415 24.057-83.491 44.142-151.719 44.634-151.618 1.657.338 134.799 64.322 135.681 65.204.497.497-.643 5.982-2.649 12.743-3.258 10.981-8.741 29.933-25.133 86.87-3.484 12.1-8.878 30.775-11.987 41.5-3.11 10.725-42.779 148.2-88.155 305.5-45.375 157.3-85.433 296.125-89.016 308.5l-14.044 48.5c-4.141 14.3-7.882 27.35-8.314 29-.432 1.65-1.877 6.263-3.212 10.25l-2.426 7.25h48.202c37.35 0 48.432-.281 49.224-1.25.895-1.094 17.736-58.965 73.463-252.438l14.168-49.187 15.046-7.243c8.275-3.984 58.236-28.315 111.024-54.07 52.787-25.755 96.242-46.711 96.565-46.569.324.141-9.472 35.132-21.767 77.757-48.939 169.662-63.348 220.284-62.999 221.332.201.602 20.133 6.798 44.294 13.769 38.556 11.125 44.021 12.475 44.684 11.037.415-.901 3.864-12.438 7.663-25.638l19.435-67.5C873.233 688.884 900 595.716 900 594.991c0-.956-9.717 3.675-96.5 45.994-33 16.093-92.625 45.133-132.5 64.535-39.875 19.402-79.923 38.93-88.995 43.395-9.072 4.465-16.633 7.7-16.803 7.19-.17-.51 16.62-59.58 37.313-131.266A495772.566 495772.566 0 00657.708 433.5c9.664-33.55 17.693-61.147 17.841-61.326.257-.311 18.125 8.19 182.334 86.744 39.261 18.782 71.465 34.021 71.564 33.865.099-.156 9.093-31.333 19.985-69.283 56.457-196.699 90.838-315.454 94.96-328 7.222-21.977 22.566-74.758 22.001-75.674-.281-.454-21.548-.826-47.261-.826-35.912 0-47.107.29-48.289 1.25M680 54.447c-29.59 6.361-51.926 27.233-60.206 56.262-2.965 10.395-3.136 29.585-.349 39.291 9.326 32.485 33.682 53.641 66.805 58.029 15.64 2.071 33.833-1.794 48.25-10.251 8.997-5.278 22-18.281 27.278-27.278 16.683-28.438 14.023-62.723-6.916-89.148-8.988-11.343-25.155-21.675-40.362-25.795-8.405-2.277-26.379-2.856-34.5-1.11" fill="undefined" fill-rule="evenodd"/></svg>